/* XPM */
static char *_4df0192fd2f416fae579b1ac6ee46e9eDd32C4jUOby2wFW[] = {
/* columns rows colors chars-per-pixel */
"64 64 19 1 ",
"  c None",
". c black",
"X c #0B0B2F",
"o c #0E0E3B",
"O c #42093C",
"+ c #111147",
"@ c #141453",
"# c #17175F",
"$ c #1A1A6B",
"% c #1D1D77",
"& c #4F0B48",
"* c #5C0D54",
"= c #690F60",
"- c #9F6C1F",
"; c #AC7522",
": c #B97E25",
"> c #C68728",
", c #D3902B",
"< c #FBE900",
/* pixels */
"                                                                ",
"                                                                ",
"                                                                ",
"                                                                ",
"                                                                ",
"                                                                ",
"                                                                ",
"                                                                ",
"                                                                ",
"                                                                ",
"                                                                ",
"                                                                ",
"                                                                ",
"                                                                ",
"                                                                ",
"                                                                ",
"                                                                ",
"                                                                ",
"                                                                ",
"                                                                ",
"                                                                ",
"                                        < <                     ",
"                                         <                      ",
"                                        < <                     ",
"                                                                ",
"                    <                                           ",
"                   < <                                          ",
"                    <          ...                              ",
"                             ..$$X..                            ",
"                            .X+#XXXX.                           ",
"                           .X@+XXXXXX.                          ",
"                          .Xo+oXXX+XX.                          ",
"                          .X#XXXX++XX+.                         ",
"                         .X##XXXX..XX#.                         ",
"                         .Xo@XX..  .X$.                         ",
"                        .X@+oXX$$.  .#.                         ",
"                        .X@oXXXXX.  .%.                         ",
"                        .ooXXXXXX.   .                          ",
"                       .X@XXXXXXX$.          <                  ",
"               < <     .+XXXXXXXXX.         < <                 ",
"                <      .#XXXXXXXXX.          <                  ",
"               < <     .+XX....XXX.                             ",
"                      .O...,,,,...O.                            ",
"                   ....=OO.>OO,.&OO....                         ",
"                 ..X@X.*&O.:**>.&**.XXX..                       ",
"                .X+#+XX....-;::....XXXXXX.                      ",
"                 .X#@#XXXXX....XXXXXXXXX.                       ",
"                  ...X+%@X@XXXXXXXXXX...                        ",
"                     ...+%$%$#+XXX...                           ",
"                        ..........                              ",
"                                                                ",
"                                                                ",
"                                                                ",
"                                                                ",
"                                                                ",
"                                                                ",
"                                                                ",
"                                                                ",
"                                                                ",
"                                                                ",
"                                                                ",
"                                                                ",
"                                                                ",
"                                                                "
};
