/* XPM */
static char *_2fbad8a6c9f4f549c20733788c50f987CGGs3HNPe863tFp[] = {
/* columns rows colors chars-per-pixel */
"64 64 4 1 ",
"  c black",
". c #272626",
"X c #852179",
"o c #F6B500",
/* pixels */
"............  ....................................  ............",
"...........  ............  ..........  ............  ...........",
"..........  ............   ..........   ............  ..........",
".........  .  ..........    ..    ..    ..........  .  .........",
"........  ... ............  .      .  ............ ...  ........",
"        .....  .............        .............  .....        ",
"....... ...... ............. ..  .. ............. ...... .......",
"....... ...... ............. ..  .. ............. ...... .......",
"...... ....... .............        ............. ....... ......",
"...... ....... ...............    ............... ....... ......",
"...... ....... .............  ....  ............. ....... ......",
"......  ...... ............   ....   ............ ......  ......",
".....         . ............ ...... ............ .         .....",
"....  ......... ................................ .........  ....",
".... .......... ................................ .......... ....",
".... .......... ..........XXXXXXX............... .......... ....",
"..   .........  ............XXXXXX..............  .........   ..",
"   .. ........ ..............  XXXX.............. ........ ..   ",
" ....  ....... ............... XXXXX............. .......  .... ",
"...... ......  ...............XXXXXX.............  ...... ......",
"....... ..... ...............oXXooXXo............. ..... .......",
"........      .............X  oooooo  X...........      ........",
".......... ... ...........XXX        XXX......... ... ..........",
".........  ...  .......... XXXXXXXXXXXX ........  ...  .........",
"......... .....   .........  XXXXXXXX  .......   ..... .........",
".......  ...... .   .........        .......   . ......  .......",
"......  ......  ...  ......................  ...  ......  ......",
".....  ......  .....  ....................  .....  ......  .....",
"....  ....... .......  ..................  ....... .......  ....",
"...  . ...... ........ .................. ........ ...... .  ...",
"    ..  ....  ........      ........      ........  ....  ..    ",
".......  ..  .  ...... ....  ......  .... ......  .  ..  .......",
"........    ...  ....  .....  ....  .....  ....  ...    ........",
"......... ......  .   ....... .... .......   .  ...... .........",
"......... ........ ..........  ..  .......... ........ .........",
"......... ......... .......... .. .......... ......... .........",
".........    ...... .......... . ........... ......    .........",
".......... .   .... ........... ............ ....   . ..........",
".........  ...  ... ...........   .......... ...  ...  .........",
".......  ......  .  ............. ..........  .  ......  .......",
"......  . ......  ............... ............  ...... .  ......",
".....  ..  ...... ...............  ........... ......  ..  .....",
"..   ..... ...... ................ ........... ...... .....   ..",
"   ......  ..... .   ............. ........   . .....  ......   ",
"......... .  ... ...  ....    ....    ....  ... ...  . .........",
"........ ...  .  ....  .   ..  ..  ..   .  ....  .  ... ........",
"........  ... . ......  ......    ......  ...... . ...  ........",
"......... .... ........ ......  ........ ........ .... .........",
"......... .... ........ .......  ....... ........ .... .........",
".........  ....       . .....      ..... .       ....  .........",
".........    .  .....  ....   ....   ....  .....  .    .........",
"........  .. . .......  .   ........   .  ....... . ..  ........",
"........ ....  ........  ..............  ........  .... ........",
"..       .... .......... .............. .......... ....       ..",
"   .... ..... .......... .............. .......... ..... ....   ",
".......  ....  ........   ............   ........  ....  .......",
"........ ... .   ...    ..  .      .  ..    ...   . ... ........",
"........ .  .... .  .......  ......  .......  . ....  . ........",
"........  ......  .......... ...... ..........  ......  ........",
"......... ........ ......... ...... ......... ........ .........",
"......... ......... ........ ...... ........ ......... .........",
".........  ......... .......  ...  .........  .......  .........",
"...........    ...... .....  .   ..  ........ ....   ...........",
".............. ...... ....  ........  ....... ... .............."
};
