/* XPM */
static char *_6fa5db285e24a7a8e786e9d0acc02b01Br2A0WZ2bC19Vlr[] = {
/* columns rows colors chars-per-pixel */
"90 64 256 2 ",
"   c #020101",
".  c #0A0505",
"X  c #0C0807",
"o  c #0E0A0A",
"O  c #160B07",
"+  c #130D0C",
"@  c #16100E",
"#  c #1B110D",
"$  c #140F11",
"%  c #161112",
"&  c #1C1414",
"*  c #1F1916",
"=  c #1D1619",
"-  c #1F1819",
";  c #270906",
":  c #3B0B04",
">  c #23140C",
",  c #2A170C",
"<  c #351C0C",
"1  c #211614",
"2  c #231915",
"3  c #2C1D14",
"4  c #201719",
"5  c #241B1B",
"6  c #2A1E1C",
"7  c #341D13",
"8  c #2C2218",
"9  c #2C211D",
"0  c #342214",
"q  c #3B2313",
"w  c #3B2410",
"e  c #32251D",
"r  c #3B271A",
"t  c #1D1822",
"y  c #251D21",
"u  c #291F21",
"i  c #221E28",
"p  c #2C2222",
"a  c #2C2527",
"s  c #322623",
"d  c #342925",
"f  c #3A2C25",
"g  c #312729",
"h  c #342A2A",
"j  c #3A2D2B",
"k  c #3C3426",
"l  c #3D312D",
"z  c #382D33",
"x  c #3C3232",
"c  c #3D3438",
"v  c #4A1809",
"b  c #462A16",
"n  c #512910",
"m  c #4B3319",
"M  c #583618",
"N  c #6C2F0E",
"B  c #662714",
"V  c #663B17",
"C  c #42342D",
"Z  c #483728",
"A  c #4D382D",
"S  c #543B26",
"D  c #423533",
"F  c #4B3C33",
"G  c #463A38",
"H  c #5C4B1F",
"J  c #6D4A1A",
"K  c #76481A",
"L  c #4E4223",
"P  c #584229",
"I  c #4C423C",
"U  c #564537",
"Y  c #674827",
"T  c #6F5029",
"R  c #775728",
"E  c #654C34",
"W  c #695439",
"Q  c #785A39",
"!  c #7B623B",
"~  c #313046",
"^  c #423B45",
"/  c #3F4156",
"(  c #4C4345",
")  c #574945",
"_  c #5D5448",
"`  c #534A57",
"'  c #5B5458",
"]  c #675748",
"[  c #6E594C",
"{  c #775D49",
"}  c #675C56",
"|  c #7A634A",
" . c #6D6357",
".. c #7C6352",
"X. c #776758",
"o. c #79705A",
"O. c #544F63",
"+. c #635B67",
"@. c #756B65",
"#. c #7C7368",
"$. c #726E70",
"%. c #90561B",
"&. c #845828",
"*. c #86663A",
"=. c #916B30",
"-. c #97793B",
";. c #A46528",
":. c #AB7833",
">. c #856649",
",. c #8C6A4D",
"<. c #956C4B",
"1. c #8D744A",
"2. c #98754A",
"3. c #866A53",
"4. c #836954",
"5. c #9A6E5E",
"6. c #897558",
"7. c #977654",
"8. c #A26840",
"9. c #A4734D",
"0. c #AA764B",
"q. c #A67B48",
"w. c #AC7A4D",
"e. c #B67D46",
"r. c #B27C4B",
"t. c #A67550",
"y. c #A87B55",
"u. c #AC7C54",
"i. c #B17F53",
"p. c #B07F58",
"a. c #8A7B6C",
"s. c #95843F",
"d. c #B4873C",
"f. c #D88E2E",
"g. c #DC932E",
"h. c #C8873B",
"j. c #CC8B3C",
"k. c #D68C32",
"l. c #D48C34",
"z. c #D28E3B",
"x. c #CC913B",
"c. c #DB9434",
"v. c #DD9A35",
"b. c #D79538",
"n. c #D5943B",
"m. c #DC9C3B",
"M. c #E79B2B",
"N. c #E39D2D",
"B. c #E39D33",
"V. c #E29E39",
"C. c #DDA239",
"Z. c #E9A52C",
"A. c #F2B32C",
"S. c #E5A334",
"D. c #EBAC34",
"F. c #E7A839",
"G. c #EDB438",
"H. c #F1B436",
"J. c #978150",
"K. c #998458",
"L. c #AA854B",
"P. c #BD8345",
"I. c #B98846",
"U. c #B4824C",
"Y. c #BA844B",
"T. c #BD8A4C",
"R. c #B1954F",
"E. c #AA8557",
"W. c #B48354",
"Q. c #BA8651",
"!. c #BB8A53",
"~. c #B2845A",
"^. c #B78A5B",
"/. c #BA9457",
"(. c #BCA34F",
"). c #978667",
"_. c #958A76",
"`. c #A68B66",
"'. c #AF976B",
"]. c #A99878",
"[. c #B9A86F",
"{. c #C38443",
"}. c #C48B43",
"|. c #CA8C46",
" X c #C38C4C",
".X c #CC9244",
"XX c #C9954C",
"oX c #D29443",
"OX c #D49B44",
"+X c #D59C49",
"@X c #D3994C",
"#X c #C18C54",
"$X c #C59353",
"%X c #C89857",
"&X c #DBA547",
"*X c #CDA950",
"=X c #CBA958",
"-X c #D7A854",
";X c #D8B35B",
":X c #E5AB44",
">X c #EBB647",
",X c #F1BD45",
"<X c #E0AD56",
"1X c #E7BA56",
"2X c #C19661",
"3X c #C7AA67",
"4X c #D1B56B",
"5X c #E4BB64",
"6X c #EFC94F",
"7X c #F2C44B",
"8X c #ECC557",
"9X c #F1C455",
"0X c #F2CB54",
"qX c #F3CC5B",
"wX c #F4D15B",
"eX c #DCC471",
"rX c #E9C664",
"tX c #F3CD64",
"yX c #F4D263",
"uX c #F4D56C",
"iX c #E7CA76",
"pX c #F0CF76",
"aX c #EDD279",
"sX c #F4D876",
"dX c #F8E17A",
"fX c #827F84",
"gX c #969186",
"hX c #A69688",
"jX c #B2AA8E",
"kX c #A19EA0",
"lX c #B6B1A8",
"zX c #CCBC8C",
"xX c #C2BAA7",
"cX c #D7C98F",
"vX c #EBD689",
"bX c #EBD68E",
"nX c #F4DC86",
"mX c #EBDA95",
"MX c #F3E390",
"NX c #F3E399",
"BX c #D6D1B0",
"VX c #ECDEA5",
"CX c #EDE3A4",
"ZX c #F3E7A5",
"AX c #F4EAAB",
"SX c #EDE6B4",
"DX c #F4EDB6",
"FX c #F6F1BD",
"GX c #DAD8D0",
"HX c #E2DFCE",
"JX c #E9E6C6",
"KX c #EEEACF",
"LX c #F7F4C7",
"PX c #F8F7D5",
"IX c #F8F9E7",
"UX c #F8F7F1",
/* pixels */
"9.<.9.9.9.9.9.9.<.9.9.9.9.8.5.9.9.<.9.9.9.9.9.0.0.9.<.t.9.t.t.t.t.t.t.t.t.t.t.t.t.t.t.t.9.t.9.9.t.t.t.t.9.9.t.t.9.t.t.t.t.t.t.t.t.t.t.t.t.t.t.u.u.t.u.u.u.w.u.u.u.u.p.u.u.p.y.p.y.y.",
"9.9.9.9.9.9.9.9.9.9.9.9.9.9.9.9.9.9.9.9.9.<.9.9.9.9.t.t.t.w.e.w.w.t.u.t.t.t.t.t.t.0.t.t.9.9.t.9.0.9.t.9.t.t.9.t.t.t.t.t.t.t.t.t.t.t.t.t.u.t.u.t.t.u.0.u.i.i.i.i.p.u.p.p.p.u.p.y.y.p.",
"9.9.9.9.8.9.9.9.9.9.9.0.9.9.9.9.9.0.9.9.9.9.9.0.0.r.{.e.{.k.z.{.{.j.h.e.r.r.0.0.{.p.0.e.e.e.r.{.h.{.e.r.0.u.u.t.0.0.t.t.t.0.t.t.t.t.9.i.r.r.u.{.{.{.e.{.{.e.r.Q.i.i.i.p.p.p.p.y.y.y.",
"9.9.9.8.0.9.9.9.9.9.9.9.0.9.9.9.r.r.0.0.0.e.e.e.m.V.Z.N.M.M.B.B.B.j.j.k.c.k.k.z.c.oXk.oXk.|.h.k.k.{.{.P.{.{.{.r.p.r.u.0.u.0.0.0.t.e.e.e.j.P.{.k.c.z.|.{.{.|.|.|.|.{.p.p.p.p.p.p.p.u.",
"9.9.0.9.9.0.9.0.9.9.0.0.9.9.0.e.r.r.e.0.w.e.j.C.D.D.Z.Z.S.N.B.S.B.B.c.c.oXc.c.B.S.V.c.c.n.n.k.g.j.{.j.{.e.e.Y.P.Y.{.r.r.u.u.0.r.{.h.{.h.{.{.z.j.z.|.h.z.|.l.V.V.n.{.#Xp.p.p.p.p.p.u.",
"9.9.0.8.0.0.9.r.0.0.0.0.e.{.{.h.|.r.r.{.n.F.D.G.>X,X-XC.&X,X1X9X1X,X1X1X>XF.B.F.B.B.B.S.V.S.B.N.k.|.{.j.P.r.{.|.j.{.{.{.{.e.{.j.z.c.g.c.c.g.c.c.z.z.z.z.OXE +XoXoXoX|.i.p.p.p.p.p.p.",
"9.0.0.0.0.0.8.0.0.e.j.oXk.k.k.f.z.n.x.v.,X,X6X0X7XqX(.*XwX0X0XqXsXsXpXtXpX1XD.H.B.B.S.F.F.D.D.D.F.F.V.V.B.B.P.{.{.|.j.{.oXV.V.:XF.Z.G.G.F.:XF.m.c.z.b.S.m.V -X+XoX|.|.Q.i.i.p.p.p.p.",
"0.0.e.0.r.r.r.e.k.k.k.c.k.c.k.c.c.G.G.7X7X7X8X8X8X(.=.d.7X9X9XqXtXtX>X>XF.F.:X:X:X>X:XoX#Xr.&Xj.r.u.+XH.F.D.S.S.|.{.oXF.D.,X>X,XH.>X:X|.r.XX@X|.oXn.b.|.d.S  Xi. X|.#XQ.p.i.p.p.p.p.",
"e.e.d.l.n.}.z.N.f.f.k.oXc.c.c.1XwXyX8XqX8XwX6X8X6XC.:.C.9X,X0XyX,X:X:X:X:X:X>X>X>X@Xi.i.W.u.u.u.u.u.U. X&X,XS.H.:X@X#XH.H.,X>X&X&X&XY.U.r.Y.i.w.T.OXj.d.m r 8 3 9.Q.i.i.p.~.p.~.i.i.",
"{.e.h.f.k.g.k.c.k.k.M.M.M.F.,XqXwXwX6X8X8XqXyXyX(.J %.d.G.,XyX&XXX#X|.oX@X@X+X$Xi.i.Q.W.p.W.W.i.u.u.i.r.p.W.-XqXH.F.V.D.,X:X Xp.W.Y.u.r.i.p.U.Y.u.q.u.q.M K K V 0. XQ.p.Q.p.p.p.p.p.",
"f.k.h.l.f.c.f.k.k.f.M.M.9XqXtXyXyX6XwXwXwX6X8X;Xs.J &.(.>X5X-X*X$XoXoXoXW.~.Q.~.!.Q.W.#XQ.W.i.!.Y.T.#XT. XQ.~.%XoX:X:X>X<X#Xp.Y.T.!.^.U.W.W.{.i.u.2.2.Q Y e Z 9 *.Q.~.~.p.p.p.~.p.p.",
"g.g.k.k.g.n.x.l.k.M.M.,XyXqXyXqXdXyXaXyXrX8X;XeX[.H > > e T *X8X-X%X%X@X-X@X#X XQ.W.W.i.~.Q.W.$X!./. XY.Y.W.W.Q.%X1X<X<XW.#X~.Q.W.W.E.W.T.u.Y.T.y.W.>.e e 8 e e 6 <.Q.i.Q.p.#Xr.#Xr.",
"h.k.f.k.f.x.g.g.x.>X6XyXyX0X0XwXdXrXyXeX(.*.m > , O 0 0 r M m R.%X+X@X@X+XV.z.oX|.~.~.~.W.#X~.Q.U.{.E.Q.!.W.W.Q.W.Q.E.Q.W.~.Q.W.!.~.Y.T.U.u.E.Q.W.!.| 2 # , 9 8 2 R ~.~.#Xi.i.i.i.i.",
"f.f.k.h..XG.Z.Z.G.7X6XwXwX0XwXwXuX;Xs.H O 2 3 7 > # # 8 0 P J.[.4XvX<X<X@XoXoX@X$X%X%X#X|.n..X$X!.#XW.^.E.E.W.W.W.Q.W.W.Q.T.Q.W.W.W. X|.W. XT. X!.U.y.  0 6 8 2 # 9.|.Q.#XQ.Q.i.r.i.",
"f.f.f.g.D.Z.A.H.,X6X0X6X6X8X*XR.L > > + 8 3 + , O   3   *XcXAXmXmXmXbXnXvXiX5X5X5X-Xm.+XU.Y. X|.}.T.U.T.W.T.W.Q.!.~.W.!.!.!.~.Q.}.P.}.Y. X XQ.T.T.W.Q.F U _ U U Z }.XX#X#X#Xr.i.i.r.",
"h.f.M.Z.D.A.>XwXwX0X6XwXyXeX8XrXJ.O # + # , # > O # m < R 3XZXCXCXnXbXbXvXvXNXNXmXvX3XOX+X=X4X4X+X=X=X&XC.C.C.OX Xx.!.Q.T. X}.l.j.{.}.j..X.XY.E.E.E.XXE U ) U S F r.|.@XoX X|.{.z.|.",
"f.g.M.S.G.A.G.G.G.N.>X6XuXsXdXsXdXH w > # w O # ; . 7 1 O > L '.cXZXMXmXmXNXNXNXCXCXmXmXCXCXCXJXSXmXaXiX8X&XG.C.D.S.oXOXv.c.v.B.v.m.x.c.N.M.n.}.W.E.!.*.k U ] F A u.#XQ.Y.n.f.k.g.c.",
"D.Z.D.F.Z.D.G.D.C.Z.G.>XuXsXdXdXdX%.K R 8 w < > b O M M V gX_.r r U zXCXCXCXMXaXvXvXCXLXFXCXLXLXLXAXCXLXvXiX8XF.Z.N.Z.Z.B.Z.Z.B.B.c.Z.n.b.n.n.m..XT.Q.R C P A U D r.#XoXoXS.M.B.M.N.",
"n.OX.Xm.D.Z.Z.Z.Z.G.G.D.1XyXdXdXuX! R R.R.K.M w : o b 7 K a.$.#.].lX_.VXCXvXsXsXMXSXjXo.hXSXPXLXSXSXmXZXZXvXAXaX>XA.Z.Z.Z.Z.G.qXqX8X,XZ.Z.v.v.n.oX.X$XY s C C j A 0.|.n.B.B.B.B.N.S.",
"I.w.U.d.N.g.S.v.A.A.H.A.Z.aXMXnXvXs.R (.cXeX-.3 7 6 1 D 3 $ $.UX].PXBXFXAXMXMXAXKXjXjXjX  ' SXKXJXcXAXMXAXZXAXCXbX>XD.7X0X7X>X1X&XS.rXqX7X>X,X&XOX@XQ.S 9 h m F e q.V.V.S.B.V.S.C.C.",
"{.}.h.n.N.Z.Z.Z.Z.Z.Z.D.A.uXvXeXJ.U K.[.5XrX! 0 < , b b 7 ~ kXUXIXUXJXLXAXZXCXDXPXPXIXIX_ #.KXlX3 . ] mXCXDXMXCXZXpX>X:XOX&XT..X:XF.C.1X=X&X1X:Xm.&X.Xd 8 p l I C <.%X&X%X+X:X+XXXXX",
"j.j.j.{.I.2.I.C.G.F.S.G.A.,XuX;X-.W R.eXeX! w , < b b M B ^ kXUXIXIXHXLXDXCXZXFXLXPXLX#.I  .UXlX<.. _ BXAXZXAXCXZXNX>Xm.V.B.v.m.m.v.m.OX XXX$Xm.OXx. XM 2 8 s d 6 2.2X%X%X#X@X#X#X#X",
"oXn.n.I.2.q.q.L.*XG.F.(.8X6X8XR.R.s.dX4XL b w L S ) E 5.kXgXp.xXJXIXHXLXZXAXNXFXLXPXGX    G UXKX#., P SXAXLXAXNXbXmX9XF.:XD.D.S.Z.Z.v.m.&X>X:X&Xq.y.T.P d j p 9 5 q.-X$X2X#X^.#X#X#X",
"Y.}.9.<.w.2.9.9.2.OXF.C..X6XtX> Q R R w w { lXBXKXkXzXUXUXUXfXp.HXIXBXFXAXAXAXLXFXLX#.N v v lXlXV V w K.AXFXCXMXmXVXrX8X@XoX&XS.m.B.OXOXI.W L.1.[ X.{ P 9 s 9 - 5 q.%XW.2X2X^.$X!.~.",
"<.<.,.7.9.0.e.0.9.U.OXn.m.F.=X< ! M n 0 < L.zXcXBXlXa.lXGXGXgXp.HXHXGXZXAXAXAXPXPXjX  n B ; 6.&.N < V ;X4X].jXZXAXnXuXuXuX;X@XOX+X&XOX.XC C l k s h k j 6 h h u 6 U./.Q $X'.^.^.~.~.",
"<.<.2.9.<.9.0.I.L.w.7.L.L.%XE.0 M M M b n M =.cXBX_.8.:.O.KX+.>.xXKXBXNXZXAXLXLXBXk   v n : 7 [.n < O d.L.BXFXLXNXtXyXyXpXrX+X:XF.-X:X=.D D 5 l j 5 9 9 p u s s j L.-.>.~.^.~.~.~.`.",
"<.9.9.,.,.>...,.q.9.q.7.U.7.r 3 b b r v P %.R 3X3X0.:.hXlX,.T S jXcX-.] DXPXPXKX3 .   n v : . _.M n X I JXFXFXDXuXwXyXsXsXsX1XrXrX8X=Xk e g g g 4 f 9 9 O - s C l F Q *.p.^.^.~.~.~.",
"9.3.4.......4.4.4.,.L.U.q.L.P & < 8 0 b n n V K w.;.;.P.u.;.=.T *.d.R.1.DXLXPXjXM K K N N N B N N n ; > BXFXLXFXyXuXuXsXsXsXuXtXuXrX4X* = h 5 * d h g 5 o p C f s p s e ~.^.^.^.~.~.",
"<.4.4.4.......X.4...{ <.0.7.b & w 7 , b b m M , n 7 S T T R K K R H w m DXFXLX).Z b n : ; ; B v O   v O ].LXFXaXyXsXdXnXsXMXnXuXsXJ.L 5 - - = I s a f & 4 f 5 p & 4 u C ~.^.^.~.~.~.",
"6.7.....4.4.....{ .. .{ ,.{ # + 0 , # 8 b 0 > , > > , 3 b q w q w 0 L zXAXSX`.F # c ~ j 8 < B < , # v X e KXAXsXwXdXuX1X>X5XsXnXdXJ.5 a c 9 5 I g - @ @ s s 4 4 O u 4 C 2X2X^.^.~.W.",
"3.3.4...>.,...[ ....X.....W + # b , 8 0 3 r O O O > 2 7 3 > . # # ! mXmXMXcXo.! 3 / O./ ~ O ,     . < O T 7.nXsXsXsXsXnXtXuXsXnXnXJ.e s s 5 % l 9 2 & o 1 5 y p u 4 6 p -X%X%X#X#X$X",
",.<.5.3.w.U.e.>.>.........C . O 0 M w X < w O X V 0 m m . > 7 L.cXvXCXmXNXbX'.k ~ / ~ ~ ~ ~ ; X     < , b 3XNXNXnX5XtXnXpXaX;X5XaX! k 5 & @ 9 j s - % @ & 5 1 u O y s u %X$X^.p.~.Q.",
"e.e.e.r.r.U.P. X>.......4.>.f 5 0 U E R b O K b &.'.E.V P W cXMXnXbXcXMXMXmX| k ^ ^ 9 5 , O v v < b n 8 w [.MXsXqXtXpXnXnX4X%X@X@X=.u 6 l l 5 6 j 4 o O p 9 % 9 & & 6 S $X#X^.#XQ.W.",
"h.e.r.Y.U.W.T.|.9...>.,.[ e s h *.>.>.2.! ;X3XY J %.%.K J.cXAXZXMXeXmXaXmXvXR.# 7 r r < 7 # < b m m b r 8 k eXrXrXaXuXnX;X$X=X%X%X*.4 h D d 5 + d +   & p 9 & * @ - * d +XOX|. X XW.",
"P.}..XXX X X X X X<.{ W s 3 f s { <.1.,.>.eXrXE J.*.[.Y [.mXZXZXNXcXsXeXaXsXvXd # > 6 0 7 < w r b r b b b m 1.iXrXpXrXiX%X$X$X%Xw.u u 1 5 d s 5 9 %   - * 5 8 @ h a p h {.@X|.|.|.{.",
"U.,...3.L. X|.e.}.t.{ f s 1 h 6 Q >.,.,.>.4XiX;.2.&.7.Q zXCXCXZXmXR.[.eXiXiXrXW +         9 p +           R T.%X@X+X@X%X/.$X%XQ.f g g g & & 9 5 p o # & & p - O - p - p *.@XoX|.|.P.",
">.>.....3.i. Xi.T.7.e 5 s 5 j 5 Q <.>.,.*.3XcX;.d.=.R.R ).NXmXAXcXJ 6.iXaXsXeX*Xf % o .   G x - i         XX%X$X$X%X^./.#X@X/.W 5 U T m 4 u 6 - 8 + @ + * 9 $ & z p 5 4 4 <.t.i.r.0.",
"..4.{ >.>.<. X$X XP s C e 5 d 9 S Q P 4.S V 2X<.cX>./.J eX[.L.=.:.:.;.;XuXeX4X8Xs # p o   l d c 5 X       /.%X^.`.^.%X%X%X-Xq.5 C D U S 5 9 5 5 & & . @ = = d g j p p - 1 ] 3.5.6.5.",
"{ >.,.{ { [ >.<.*.1 2 6 & + & 5 e s 3 w m Y -.V 7.Y eXK mX1.b Y N n , T P 3 ;X=Xs @ d + . j d g @ % . . . !.-X@X-X:XOXOX+X=.p s d C b m 9 1 # 5 % &   * s x l 5 x 5 u u 4 & _ 3.7.7.",
".. ...{ { { >.>.>.] 7 1 5 9 & & 1 5   # < n K T b m P m M M 0 3 , 0 ; O Q =X=X(.9 5 u o o d G p = & . . . XX@XOX:XOX-XJ.f s d D F j h 6 d & 1 % & s x D x a h p p p h p = & p h A F ",
"[ [ >...{ >.4.>.,.[ F 5 9 p 9 & + & +     & < n , m b r w b , > > > . O -X-X-XJ.> j p 5 @ f j 9 8 # + o + XX&X&X>X1X*Xp d D g d j a s h j 5 & & d l j a p p d a 5 1 g 9 5 h 6 6 p h ",
"A F [ { >.4.4.,.4.3.{ 9 # & # # $ O &     > . > > > , > # > O X @ > m W./.^./.R 1 j * @ # j p l - & @ @ O d.>XC.:X1X-.j g s h 6 p 5 5 + y p & 9 D 9 d D G g 5 6 5 & y 5 4 h u 5 6 a ",
"F A U { >.{ >.>...4.3.{ U U T >.A . & . . .         + .   O O     m R.E.R.W.E.Z 5 j e & O j 9 d @ 2 X # % -.>X>X;X2.8 d a p 9 9 p z y + = 5 5 j h 4 a x j p y 5 5 & 4 a p p u G ( D ",
"u e C A { ,.4.4.| 4.6.6.y.7.7.7.7.1.E.[.>.6 & & # + . > , 8 + o L T.E.Y.~.E.y.9 C d 9 6 & 2 k d 8 * @ X # 2 rXrXs.S C 8 y x ] ' ( & p a & # z j h h j * 5 p 5 y & & X & p u s h j D ",
"5 e l g A ,.<.>.4.4.3.<.<.q.U.d.I.x.R.d.x.P b # o @   > 3 3 O , R.%X/.^.E.!.>.k 5 9     p * s 5 & % * & & W R.L.{ F ) ] U U C D U ( G c p s z h h h d 5 p p & y y 4 & g c x g j f D ",
"f j p p g E 2.<.>.q.I.j.h.|.x.I.}..Xb.v.N.S.J # . .         L 1X;XrX9X-XE.7.>.6 % p   9 s 5 9 9 8 @ o * 5 l F U F _ ] _ ] ) U U C ( } | ] I x f U I C p 5 9 1 % a = p l s a s j j h ",
"* p 5 g 9 2 q.2.I.d.h.d.x.v.D.C.C.C.x.b.S.D.K * 8 & .       s.1X1X1X7X*X%X+X,.8 - . l s 2 2 9 p % . - C f 9 & & & # a h Q *.{ { W W | | ! | | | U p 6 u * 9 ] ) } ] ] d G D s s h d ",
"- % 4 - e E |.r.L.T.I.I.C.x.x.I.h.C.S.C.C.>XH 8 e 1 3 # 1 o d.>X>X:X;X:Xm.d.e 8 8 & l 9 5 & p @ @ p d 9 5 C l e e s - & y | 7.L.E.1.] _ W { | U 9 9 2 s x #.).).6.6.4.' I G l C x 6 ",
"5 + & p 5 Q Y.I.h.d.n.:.Q E ] w.L.2.T.C.d.-.8 & 9 . r 8 3 # *X1X1X:X5X-X&XR f 9 l p l a 9 2 t % d & % 9 I I d r e e 5 s p | E.L.L.L.1.3.o...x 5 p p s Q 7.6.6.6.6.@. .} I j y p j j ",
"y @ & = p U <.<.P.j.h.] D A h E 2.T.L.q.Q 2 9 & & # 3 8 # * ;X1X(.2.3X*X1.C l F D l f h  ._.hX].)._ h L r e 8 9 f e + + 2 . 1.L.3...6.3.7.P - 5 = a X.K.6.o.3.>.>._ U F s h p % a j ",
"- p & 5 2 f Q L.1.2.) ^ ( h & 1 h E E U 5 o p 1 # & 6 0 3 & Q J.m p ).].| ) 6.#.X.X.Q 7.'.'.].`.'.jX).] 9 9 2 9 8 & 2 9 @ X Z _ ] W [ 2.>.W ) _ U #._. .] ] _ ) G G j e 4 x a + s d ",
"4 5 % & 1 s U >.{ E G ' ` @ + 5 & e 2 = 6 o 9 5 # o 2 0 0 & 1 3 e 9 R.3X[.`._.).`._.[.3X].`.].[.].[.].]._.[ ( g 2 X * & @ + + @ z O.O.O._ _ a.#. . .[ @.] U U G x z x 9 a 9 y - & s ",
"- 9 5 o o g p - u ^ ` ) ^ A 5 . o = 5 & @ & & 9 5 + 2 0 0 2 2 2 & 6 6.%X/.K.'.!.E.)._.'.'.3X3X`.6.#.a. .#.a.#.} _ 9 & 9 o @ o % a +.O.+.' '  .@.@.} } _ ) U G 8 $ p 5 . 9 9 - p 6 6 ",
"= 9 9 & X % & 9 1 5 j I _ ) ^     . % * & @ 1 9 @ @ & 3 > @ e # # = _ '.].gX_._.gX+.$.$._.].).6.X.+.( ] } @. .$.@.@.d @ + 8 o. .#.} x 5 a g c x _ W U j j s s Z + y p 4 s p % 5 p # ",
"= = p - o   % $ & 5 6 x ) D I .   $ t . . . . # . p - 1 9 @ @ 1 9 5 5 #._.#.@.)._._.hX`.5.a.X.@.[ x 9 % % a G G ( ' +.) o.).@.@.( p y a y 5 & 9 5 p s p a $ % = . * 9 - g g & u d 5 ",
"& % % - + + o % 5 u 5 & s C G z - % i -       o     o o & @ @ 1 5 * * W _.@.gXgXa.).y.q.4.} ' G 9 9 & y % . X j ( G +.$.+.} } I 9 4 + % o - g 9 1 4 % & 9 . % 5 a a z s - a - u d p ",
"& = 5 a y o . % 1 u 5 o u z ( ( h O o % i & & .       o o + - & 4 + + g h z g 5 (  .$.} +.} h u & & = = %       G G G ' +.+.O.z u % & & @ a p & 5 u 5 @ & s s s d p & = & % - - h h ",
"o % % & % $ % y p 5 y y u u z s u u . = % - u x c z 5 p G j & a 9 l a 5 o o & * y G _  .' U & 1 5 & y = $       a g x x ` ~ a - = o + o + . & = @ @ 5 y p 5 & 9 p % @ - & o $ $ d p ",
"% 5 5 & & p h s y u 5 & 5 & 5 s u h a % $ + % - 5 g x c h s k a p % % & @   % - o p F ^ j 5 & & u & - . = g &     . 9 y % % %     .   o     + + & u & & 5 2 + p = o & %     t h d p ",
"4 - 9 1 1 p & 5 u y 4 & & 1 1 8 y 5 u g = o & g 4 5 a x ( x a g a -     & & & @ % O D g p s & 1 5 + % . y p -       % % o . . % s s 6 u 6 1 % % X = & 5 5 5 + 1 + o   + X = c a g p ",
"5 * p p 4 p p y = % a = $ + & 1 & & g y u i = = & 4 5 p l 9 * 9 + @ & - 5 & + $ o o g d 6 5 u h 4 & 4 o 4 5 u .     + + o o % - 4 u 5 O # 1 1 % & . . y - % 5 & . . o 9 a h h a a s ",
"- 5 p - a u u a a h g 5 4 & & 3 $ & & = 5 p p y % % + % l & - -     p + o * o o . + % u 1 6 5 4 & 5 $ $ 5 5 & .     O .   . + + & > 1 5 1 # % & + @ u y % & 1 . 9 s j l d s c d g 5 ",
"p 6 5 - h d p u p & u s h a l h s a s 5 4 p a y p 5 & % . & + @   . 9 % . & o . + o o 6 6 6 & 5 & & + = % 4 4 +     j d u 5 p s u u 6 6 3 7 4 & 5 f s u s p - - 9 p l s z h 9 a g g ",
"y & & y 4 6 j p y & 5 p 5 @ 4 j s 5 s s 5 5 u - % % * %   o       @ - %   $ $ $ 4 +   5 1 5 p 4 % = - % + & 5 & . - g j z u h h g e g y 1 5 5 D F 6 5 6 5 5 8 8 d g 5 d d p 9 * y a "
};
