/* XPM */
static char *_8c921194d5a4f15cfdfa0bf5b0b08961Hb8xa02uTeiliG8[] = {
/* columns rows colors chars-per-pixel */
"64 64 6 1 ",
"  c black",
". c #272626",
"X c #852179",
"o c #F6B500",
"O c #9C1182",
"+ c white",
/* pixels */
"............Oo....................................Oo............",
"...........Oo............++..........++............Oo...........",
"..........Oo............+++..........+++............Oo..........",
".........Oo.oO..........++++..++++..++++..........oO.Oo.........",
"........Oo...o............++.++++++.++............O...Oo........",
"oOoOoOoO.....Oo.............++++++++.............Oo.....oOoOoOoO",
".......o......O.............+..++..+.............o......O.......",
".......O......o.............+..++..+.............O......o.......",
"......O.......O.............++++++++.............o.......o......",
"......o.......o...............++++...............O.......O......",
"......O.......O.............++....++.............o.......o......",
"......oO......o............+++....+++............O......oO......",
".....oOoOoOoOo.o............+......+............O.OoOoOoOoO.....",
"....oO.........O................................o.........oO....",
"....O..........o................................O..........o....",
"....o..........O..........XXXXXXX...............o..........O....",
"..OoO.........Oo............XXXXXX..............Oo.........oOo..",
"oOo..O........o..............  XXXX..............O........o..OoO",
"O....oO.......O............... XXXXX.............o.......oO....o",
"......o......Oo...............XXXXXX.............Oo......O......",
".......o.....o...............oXXooXXo.............O.....O.......",
"........oOoOoO.............X  oooooo  X...........oOoOoO........",
"..........O...O...........XXX        XXX.........o...o..........",
".........Oo...oO.......... XXXXXXXXXXXX ........oO...Oo.........",
".........o.....oOo.........  XXXXXXXX  .......OoO.....O.........",
".......Oo......O.OoO.........        .......oOo.o......Oo.......",
"......Oo......Oo...oO......................oO...Oo......Oo......",
".....Oo......Oo.....oO....................oO.....Oo......Oo.....",
"....Oo.......o.......oO..................oO.......O.......Oo....",
"...Oo.o......O........o..................O........o......O.Oo...",
"OoOo..Oo....Oo........OoOoOo........OoOoOo........Oo....Oo..OoOo",
".......Oo..Oo.oO......o....Oo......Oo....O......oO.Oo..Oo.......",
"........OoOo...oO....oO.....Oo....Oo.....oO....oO...OoOo........",
".........O......oO.OoO.......O....o.......oOo.oO......o.........",
".........o........O..........oO..oO..........o........O.........",
".........O.........O..........o..O..........o.........o.........",
".........oOoO......o..........O.O...........O......oOoO.........",
"..........o.oOo....O...........O............o....OoO.O..........",
".........oO...Oo...o...........oOo..........O...Oo...oO.........",
".......Oo......Oo.oO.............O..........oO.Oo......Oo.......",
"......Oo.o......Oo...............o............Oo......O.Oo......",
".....Oo..Oo......O...............Oo...........o......Oo..Oo.....",
"..OoO.....O......o................O...........O......o.....oOo..",
"oOo......Oo.....o.oOo.............o........OoO.O.....Oo......OoO",
".........o.oO...O...Oo....OoOo....OoOo....Oo...o...oO.O.........",
"........o...oO.Oo....Oo.oOo..Oo..Oo..OoO.Oo....Oo.oO...O........",
"........Oo...o.o......Oo......OoOo......Oo......O.O...Oo........",
".........O....o........O......oO........o........O....o.........",
".........o....O........o.......oO.......O........o....O.........",
".........Oo....OoOoOoO.O.....OoOoOo.....o.oOoOoOo....Oo.........",
".........oOoO.Oo.....oO....oOo....OoO....oO.....Oo.oOoO.........",
"........oO..o.o.......oO.OoO........oOo.oO.......O.O..oO........",
"........O....oO........oO..............oO........oO....o........",
"..oOoOoOo....O..........o..............O..........o....OoOoOoO..",
"OoO....o.....o..........O..............o..........O.....O....oOo",
".......Oo....Oo........OoO............oOo........Oo....Oo.......",
"........O...O.OoO...OoOo..Oo.oOoOoO.Oo..OoOo...oOo.o...o........",
"........o.oO....o.oO.......Oo......Oo.......oO.O....oO.O........",
"........Oo......Oo..........O......o..........Oo......Oo........",
".........O........o.........o......O.........O........o.........",
".........o.........o........O......o........O.........O.........",
".........OOo................Oo.....o................Ooo.........",
"...........OoOo............Oo......Oo.............oOo.O.........",
"..............O...........Oo........Oo...........oO....o........"
};
