/* XPM */
static char *e28e5cc16258426ed9ea35593285971ejNpoz7PaZjkeiUnj[] = {
/* columns rows colors chars-per-pixel */
"64 64 9 1 ",
"  c black",
". c #272626",
"X c #383636",
"o c #541908",
"O c #4F4D4D",
"+ c #81270D",
"@ c #A39000",
"# c #CEB705",
"$ c #EED405",
/* pixels */
"............  ............. .......... ...........  ............",
"...........  ..............OOOOOOOOOO.. ...........  ...........",
"..........  ...........OOOOXXOOOOOOXXOOOO...........  ..........",
".........  .  ........OOOOOOXXOOOOXXOOOOOO........  .  .........",
"........  ... .......OOOOOOOOXOOOOXOOOOOOOO....... ...  ........",
"        .....  ....OOXXOOOO          OOOOOOOO....  .....        ",
"....... ...... ...OOOOO     oo++o+++     OOOOO.   ...... .......",
"....... ......   XOOO   o+++oo++o+++o+++   OOOO.. ...... .......",
"...... ....... .OOOO  ++o+++o+o+o+++o+++o+  OXXO. ....... ......",
"...... ....... OOOO  +++o+++o+o+o+++o+++o++ XXOOO ....... ......",
"...... .......OOOO  o+++o+++o+++o+++o+++o+++  OOOO....... ......",
"......  ......OOO  +o+++o+++o+++o+++o+++o+++o  OOO......  ......",
".....        XOOO ++o+++o+++o+++o+++o+++o+++o+ OOOO        .....",
"....  .......XXO +++o+++o+++o+++o+++o+++o+++o++ OOO.......  ....",
".... ........OXX +++o+++o+++o+++o+++o+++o+++o++ OOO........ ....",
".... ........OOX +++o+++o+++o+++o+++o+++o+++o++ OOO........ ....",
"..   ........OOO +++o+++o+++o+++o+++o+++o+++o++ OOO........   ..",
"   .. .......OOX +++o+++oo++o+++o+++o+++o+++o++ OOO....... ..   ",
" ....  ......OXX +++o+++oo++o+++o+++o+++o+++o++ XOO......  .... ",
"...... ......OXO +++o+++ooo+o+++o+++o+++o+++o++ OXX...... ......",
"....... .....OXO +++o+++o+o+o+++o+++o+++o+++o++ OOO..... .......",
"........     XXO +++o+++o+o+o+++o+++o+++o+++o++ OOO     ........",
".......... ..OXO +++o+++o+o+o+++o+++o+++o+++o++ OOO.. ..........",
".........  ..OXO +++ooooo+o+ooooo+++ooooo+++ooo OOX..  .........",
"......... ...OXO +++o+++o+ooo+++o+++o+++o+++o++ OXX... .........",
".......  ....OXO +++o+++o++oo+++o+++o+++o+++o++ XXO....  .......",
"......  .....OXX +++o+++o+++o+++o+++o+++o+++o++ XOO.....  ......",
".....  ......OOX +++o+++o+++o+++o+++o++oo+++o++ OOO......  .....",
"....  .......OOO +++o+++o+++o+++o+++o++oo+++o++ OOO.......  ....",
"...  . ......OOO +++o+++o+++o+++o+++o+ooo+++o++ OOO...... .  ...",
"    ..  .... OOO +++o+++o+++o+++o+++o+o+o+++o++ OOO ....  ..    ",
".......  ..  OOO +++o+++o+++o+++o+++o+o+o+++o++ OOO  ..  .......",
"........    .OXX +++o+++o+++o+++o+++o+o+o+++o++ OOO.    ........",
"......... ...OXO +++o@++o+++o+++o+++ooo+o+++o++ OXX... .........",
"......... ...XXO +++@#@+o+++o+++o+++oo++o+++o++ XXO... .........",
"......... ...XOO ++@#$#@o+++o+++o+++o+++o+++o++ OOO... .........",
".........    OOO +++@#@+o+++o+++o+++o+++o+++o++ OOO    .........",
".......... . OOO +++o@++o+++ooo+o+++o+++o+++o++ OOO . ..........",
".........  ..OOO +++o+++o+++o+o+o+++o+++o+++o++ OOO..  .........",
".......  ....OOO +++o+++o+++o+ooo+++o+++o+++o++ OOO....  .......",
"......  . ...XOO oooo+++ooooo++oooooo+++ooooo++ OOO... .  ......",
".....  ..  ..XXO +++o+++o+++o+ooo+++oo++o+++o++ OOO..  ..  .....",
"..   ..... ..OXX +++o+++o+++o+o+o+++oo++o+++o++ XOO.. .....   ..",
"   ......  ..OOX +++o+++o+++o+ooo+++oo++o+++oo+ XXO..  ......   ",
"......... .  OOO +++o+++o+++o++oo+++o+o+o+++oo+ OXX  . .........",
"........ ... OOO +++o+++o+++o++oo+++o+ooo+++ooo OOO ... ........",
"........  ...OOO +++oo++o+++o+++o+++o+++o+++o+o OOO...  ........",
"......... ...XXO +++oo++o+++o+++o+++o+++o+++o++ OOO... .........",
"......... ...OXO +++ooo+o+++o+++o+++o+++o+++o++ OOO... .........",
".........  ..OXX +++o+o+o+++o+++o+++o+++o+++o++ OOO..  .........",
".........    OOX +++o+o+o+++o+++o+++o+++o+++o++ OOO    .........",
"........  .. OOX +++o+ooo+++o+++o+++o+++o+++o++ OXX ..  ........",
"........ ....OXX +++o++oo+++o+++o+++o+++o+++o++ OXO.... ........",
"..       ....OXO +++o++oo+++o+++o+++o+++o+++o++ XXO....       ..",
"   .... .....XXO ++oo+++o+++o+++o+++o+++o+++o++ OOO..... ....   ",
".......  ....OOO ++oo+++o+++o+++o+++o+++o+++o++ OOO....  .......",
"........ ... OOO +ooooooo+++ooooo+++ooooo+++ooo OOX ... ........",
"........ .  .OOO oo+o+++o+++oo++o+++o+++o+++o++ OXX.  . ........",
"........  ...XXO +++o+++o+++oo++o+++o+++o+++o++ XXO...  ........",
"......... ...OXX +++o+++o+++ooo+o+++o+++o+++o++ XOO... .........",
"......... ...OOX +++o+++o+++o+o+o+++oo++o+++o++ OOO... .........",
".........  ..OOO +++o+++o+++o+o+o+++oo++o+++o++ OOO..  .........",
"...........  OOO +++o+++o+++o+++o+++ooo+o+++o++ OOO  ...........",
".............XXX +++o+++o+++o+++o+++o+ooo+++o++ XXX............."
};
