/* XPM */
static char *_d73c0f2aca64e51931d9a759775d0dcyp80sqnWBEZdg5rk[] = {
/* columns rows colors chars-per-pixel */
"64 64 3 1 ",
"  c #272626",
". c #AB1818",
"X c #F60000",
/* pixels */
"              X               X     X                 X     X   ",
"             X.               .     .X                .    X    ",
"             . .             .X      .X               X    .    ",
"            .X  .X.         .X        .X.             .    X    ",
"           .X     X.X.     .X          .X            .X    .X   ",
".X.      X.X         X.X  .X          .X.X          .X.  X. .X.X",
"  X.    X.             .X.         .X.X  .X         X X.X   X.  ",
"    .X.X.               .         .X      .        X.       .   ",
"     .                  X        .X       X.X      .        X   ",
"     X.X.               .        X          .    X.X        .   ",
"    X   X.X             X       X.          X.X.X.          X   ",
"   X.      X.X        .X.       .          X.    X.          X  ",
"  X.         .X.  X.X.X X.X.   .X        .X.      X.         .X ",
" X.            X.X.        X.X.X        .X         X.X    .X. . ",
"X              .           .    X.      X            .X.X.X   X.",
"              .X.         .X     X      .           .          X",
"             .X X.X       X      .     .X           X          .",
"            .X    .      X.      X     X            .          X",
"           .X     X.    X.       .   .X.            X          .",
"          .X       X   X.        X.X.   .           .X         X",
"         .X.       .X.X.        X.       .           .X     X.X.",
"     X.X.X X.      X    .X     X.         .X        .  X.  X.   ",
"     .       .X.X.X.     .X   X.           .X.X.X.X.X   X.X.    ",
"    .X          .         . .X.            X              .     ",
"   .X           X.         .            X.X X              .X   ",
" X.X           X.X         X           X.   .            X. .X. ",
"X.            X.           .         .X.    X.          X.   .X.",
"             X.            X      .X.X       X.         .     .X",
"X           X. .          X X.X.X.    X       X.X      .X      .",
".X.X        .  X.X        .   .X      .X        .   .X.X     X.X",
"   .X      .X    .X      .      X       X       X.X.X  .    X.  ",
"    .X     X      .X   X.X      .        X     X        .  X.   ",
"     .     .       .  X.        X        .X    .         . .    ",
"     X.    X        .X.         .         .    X          .X    ",
"      X   X.        X.         .X        .X    .          X     ",
"      .  X.          X         X         X     X          .     ",
"      X X.           .        X.X        .     .X        .X     ",
".X    .X.            X       X.  X      .X   X. .X       X     X",
" .X.X X.             .     .X     X    .X   X.   .X      .  X.X ",
"    .X               X    .X       X   X    .     .X     X. .   ",
"     .               .   .X        .X.X.   .X      .X.   .X.X   ",
"      .X.           .X X.X           X.   .X      .  X.X.X      ",
"        X.         .X X.              X.  X  .X. .X    .        ",
"         X.X.X    .X  .              X X   X.   .      X        ",
"         .   .X X.X   X.            X  . .X     X.     .        ",
".       .X    .X.      X            .   .X       X     X.X   X.X",
" .X.  X.X      .       .           .X   X        .       .X.X   ",
"   X.X.        X       X           X    .       .X        .     ",
"    X          .X       X.X       X.    X        .       .X     ",
"     X.      X.X      .X. .X     X.     .       .X.     .X      ",
"      X.X   X. .X.   .X    .     .      X.X   X.X X.  X.X       ",
"        .X.X.    X.X.X      .   .X        .X X.     .X.         ",
"        X          .X       X   X           X.        X.        ",
"        .           .X       X.X.         .X.          X.       ",
"       .             .X  .X.X.  X.X.     .X            .X       ",
"      .X              . .X          .    X            .X.X      ",
"     .X X              .           .X.  X.           .X  .X     ",
"    .X  .X             X          .X X. .           .X    .X    ",
"  X.X    .             .X         X   X.            X      .X.  ",
".X.      X.    X.X.     .        X.    X.   .X.X.X. .         .X",
"          X.  X.  X.X.X.X.X.    X.      X.X.X      .X           ",
"           X.X             X X.X.         .       .X.           ",
"             .X            .X.            X.X   X.X X           ",
"              .           .                  X.X.   .           "
};
