/* XPM */
static char *a90594a0466346d9969e15f9dcf086bcY4yyxqTrdvSAIZLt[] = {
/* columns rows colors chars-per-pixel */
"64 64 4 1 ",
"  c black",
". c gray20",
"X c #760000",
"o c #A10101",
/* pixels */
"Xo...ooXo.....o...o.ooo....oo...Xo .o...o..X . o.....XXo.X.....X",
"Xo..o.X.oo...ooo.ooo.Xo ..o....Xoo .oo.ooo.X .o.o....X.o.Xo...XX",
"Xo.oo.X. o..o.Xo.o.o.X.o.oo...XXoXX..o.o.o.XXo .o....X. oXoo..X.",
"Xooo..X.  ooo..ooo...X.o.o...X..o.XX.oo...o.Xo ..o..XX. o.Xo.XX.",
"XXoo..X.. oo...ooo...X.ooo...X.o.. XXoo...o.Xo  .oo.X.. .oo..X..",
".Xoo..X..o.o...XXo...X.oo...X..o.. .o.o....oXX.  .o.X.. .oo..X..",
".XXo..X..o.o....Xo...XX o...X..o.. XXXo....o X..  .oX..  oo..X..",
"..Xo...X. .o....Xo..XXX.o...X..o.. X.Xoo...  XX.. .oX...oXX..X..",
"..Xo...X   o...X....X XXo...X...o.XX..Xo... .XXX. ..oX...X  .X..",
" .Xoo.. X..o...X...X  .Xo...X...o.X ..Xoo.. X..X. ..oX...X.  X..",
"  Xoo   X..o...X...X ..Xo...X...ooX ...Xo.. X..XX ..oX...X. XX  ",
"..Xo....X..o ..X..XX ..Xo....X...o. ...Xoo..X...X  .oXX..X.X.X..",
"..Xo.....X..o .X..X  ..X.o...X...oo ...X.o.X  ..X. o  X    X XX.",
"..Xo.....X..o XX  X.  ..Xo...X...Xo ...X.o.X. ..X..o.XX....X .X.",
"..oo......X.ooX. .X..  XXo....X...o ...X.o.X. ..X..o.X.X...X  X.",
".Xo.......X..oX. .X... X  o..XXX.  o   X.oX.. ..X.o X..X...X. ..",
".Xo...... X  Xo. .X....X..o XX. X .o.. X.oX.. ..X.oXX..X....X ..",
".oo..... X...Xo. .X....X...oX   .X.o.. XooX     X oX...X....X  .",
".oX..... X...X.o .X....X...o... .Xo... XoXXX.....oXX....X...XX .",
".oX     X....X.o  X...X...X.o.. ..o....XoX.X.....oX.....X....X .",
".oX....XX....X.o. X...X...X.o.. ..oX...o.X.XX....oX.....X....X  ",
"oo.X...X.....X.oo X...X...X..o. .o.X...o.X..X....oXX....X....X..",
"oo.X..X......X..o X..XX...X..o. .oX.X....X...X...o X....X... X..",
".o..XXX.......X.o X..X...X...o  oX..X....X...X...o.X....X..  X..",
".o..XX........X.o X..X...X...o .XX..X....X...X...o.X ..XX.  .X..",
" oo.XX.........Xo   .X...X...o .X....X.. o...X....oX ..X.. ..X..",
". o XX         Xo.. .XX...X..o .X....X  ooX..XX...oXX..X.  .....",
"..o.XX..... ...oo..   X   X  o .X....X .o.X.........X  XX ......",
"....X...... ...oX.. ..X...X..o XX ...X .o..X.......  .X.X  .....",
"....X...... ..XoXX. ...X..X..o X.    X oo..X......  ..X.XX .....",
"...XX...... .X.o.X. ...X..X..o X.....X.o...X..     ...X..X .....",
"...XX.. ... X....X. ...X....o.XX.....X.o . XX  . ....XX..o .....",
"..XXXX      X....X  ...oX...o.XX ....X.o  XXX... ....X..ooX ....",
"..X..X .....X....XX...ooX..o..X.X....X..o.X.X... ....X..o.X ....",
"..X...X....X....  X...o.X..o..X.X....X..oX..X...  ...X..o X ....",
"....  XX...X...  .X...oXX..o..X.X....X. oX..X.... ..XX.o. X  ...",
" ..  .XXX..XX.. ..X...oX.X.o..X.X....X  oo..XX..  ..X..o  X. ...",
"    ..X.X...X.. ..X...XX.X......X....X .Xo...XX. ...X..o .X.    ",
".....X..XX..X.   .X...X...X....oo....X .Xo...XX. ...X...o..X....",
".....X...X..X  . X   .X...X....oX...X. .Xo..X..X ...X.. o.XX....",
"     X..... XX...X.. X   ..X...oX...X. XXo..X..XX...XX  o.X.....",
".... X      .X...X...X..  .X..o X ..X  X ..XX..oo    X...oX.....",
".....X   ...XX..X...XX..   XX.o X   X .X.  X   oX.. .....oX.....",
".....X.. ...X...X...X... .. X o.X.. X..X...X.. o.X.   ...o......",
".....XX. ...X..XX...X... ...X.o.X.. X..XX..X..oo.X...   .Xo.....",
"......X. ...X..XX...XX.. ...X.o.X.. X...X..X..o..X.....  Xo.... ",
"......X. ..XX.XXX....X.. ...X..oX...X...X.....o..X......X.o..   ",
".......X   X..X.X....X.. ..X...oX...X ..X....oo..X......X.o.. ..",
".......X.. X..X.XX...... ..X...oo...XX ..X...o ..X......X o   ..",
"...... X.. X..X..X...... ..X....o..... ..X...o ..X......X.o.....",
"...   X... X.. ..XX....  ..X....oo....  ..X..o ..X..... X.......",
"..  ..X... XX   ..X...   ...X....o...     X  o ..X..... X.......",
"   ........ ...  .X..  .  .......o..  ....X..oo..X..... .X......",
"...........  ...  X   ...  ......o.  .....X.. o...X.... .X......",
"............ .....X.......      .o  ......X.  o........ .X......",
"............ .....X............  o .......X. .......... .XX.....",
"...........  .................  .o.......XX  .......... ..X.....",
".........   .................. ..o..........  ......... ..X.....",
".....     ..........           .. ...........               ....",
"....  .............. ............ ...........  ............   ..",
"...  ..............  ............   ........  ............... ..",
"... ..............  ............... .......  ................ ..",
"..  ..........     ................ ....... .................  .",
".. ..........  .................... ......  ..................  "
};
