/* XPM */
static char *_9049cbd3f1d411ca608af6e1747f8f9DtEydzxUxxxTQ9pe[] = {
/* columns rows colors chars-per-pixel */
"64 64 5 1 ",
"  c black",
". c #272626",
"X c #AB1818",
"o c #F60000",
"O c #CBC4C4",
/* pixels */
".............. ............... ..... ................. ..... ...",
".............  ............... .....  ................ .... ....",
"............. . .............  ......  ............... .... ....",
"............  ..   .........  ........   ............. .... ....",
"...........  .....    .....  ..........  ............  ....  ...",
"   ......   .........   ..  ..........    ..........   ..  .    ",
"..  ....  .............   .........    ..  ......... .   ...  ..",
"....     ............... .........  ...... ........  ....... ...",
"..... .................. ........  .......   ...... ........ ...",
".....    ............... ........ .......... ....   ........ ...",
".... ...   ............. .......  ..........      .......... ...",
"...  ......   ........   ....... ..........  ....  .......... ..",
"..  .........   ..     .    ...  ........   ......  .........  .",
".  ............    ........     ........  .........   ....   . .",
" .............. ........... ....  ...... ............      ...  ",
"..............   .........  ..... ...... ........... .......... ",
".............  .   ....... ...... .....  ........... .......... ",
"............  .... ......  ...... ..... ............ .......... ",
"...........  .....  ....  ....... ...   ............ .......... ",
"..........  ....... ...  ........    ... ...........  ......... ",
".........   .......     ........  ....... ...........  .....    ",
".....     .  ...... ....  .....  .........  ........ ..  ..  ...",
"..... .......       .....  ...  ...........          ...    ....",
"....  .......... ......... .   ............ .............. .....",
"...  ...........  ......... ............   . ..............  ...",
".   ...........   ......... ...........  ... ............  .   .",
"  ............  ........... .........   ....  ..........  ...   ",
".............  ............ ......    .......  ......... .....  ",
" ...........  . .......... .      .... .......   ......  ...... ",
"    ........ ..   ........ ...  ......  ........ ...    .....   ",
"...  ......  ....  ...... ...... ....... .......     .. ....  ..",
"....  ..... ......  ...   ...... ........ ..... ........ ..  ...",
"..... ..... ....... ..  ........ ........  .... ......... . ....",
".....  .... ........   ......... ......... .... ..........  ....",
"...... ...  ........  .........  ........  .... .......... .....",
"...... ..  .......... ......... ......... ..... .......... .....",
"...... .  ........... ........   ........ .....  ........  .....",
"  ....   ............ .......  .. ......  ...  .  ....... ..... ",
".    .  ............. .....  ..... ....  ...  ...  ...... ..   .",
"....  ............... ....  ....... ... .... .....  .....  . ...",
"..... ............... ...  ........     ...  ......   ...    ...",
"......   ...........  .   ...........  ...  ...... ..     ......",
"........  .........  .  ..............  .. ..   .  .... ........",
".........     ....  .. .............. . ...  ... ...... ........",
"......... ...  .   ...  ............ .. .  .....  ..... ........",
" .......  ....   ...... ............ ...  ....... .....   ...   ",
".   ..   ...... ....... ...........  ... ........ .......    ...",
"...    ........ ....... ........... .... .......  ........ .....",
".... ..........  .......   .......  .... ........ .......  .....",
".....  ......   ......   .  .....  ..... .......   .....  ......",
"......   ...  .   ...  .... ..... ......   ...   .  ..   .......",
"........ OOOOOOOO     ...... ...  ........  .  .....   .........",
"........OOOOOOOOOO.  ....... ... ...........  ........  ........",
".......OOOOOOOOOOOO.  .......    .........   ..........  .......",
".......O   OOOO   O..  ..     ..    .....  ............  .......",
"......O     OO     O.. .  .......... .... ............    ......",
"..... O     OO     O... ...........   ..  ...........  ..  .....",
"....  O     OO     O... ..........  .  . ...........  ....  ....",
"..   .OO   OOOO   OO...  ......... ...  ............ ......   ..",
"   ....OOOOO  OOOOO..... ........  ....  ...       . .........  ",
"........OOOO  OOOO          ....  ......     ......  ...........",
".........OOOOOOOO.......... .    ......... .......   ...........",
"........oOO OO OOoX........   ............   ...   . ...........",
"....oXoXoOO OO OOXoXo..... ..................    ... ..........."
};
