/* XPM */
static char *_fcf1e0a04304d42ad0eab2e28b449704kgjxyYP8jMBFBQa[] = {
/* columns rows colors chars-per-pixel */
"64 64 6 1 ",
"  c black",
". c #272626",
"X c #383636",
"o c #4F4D4D",
"O c #069102",
"+ c #0EDC08",
/* pixels */
"............  ............. .......... ...........  ............",
"...........  ..............oooooooooo.. ...........  ...........",
"..........  ...........ooooXXooooooXXoooo...........  ..........",
".........  .  ........ooooooXXooooXXoooooo........  .  .........",
"........  ... .......ooooooooXooooXoooooooo....... ...  ........",
"        .....  ....ooXXoooo          oooooooo....  .....        ",
"....... ...... ...ooooo     +O+O+O+O     ooooo.   ...... .......",
"....... ......   Xooo   O+O+O+O+O+O+O+O+   oooo.. ...... .......",
"...... ....... .oooo  +O+O+OOO+O+O+O+O+O+O  oXXo. ....... ......",
"...... ....... oooo  +O+OOO+O+O+OOOOOOO+O+O XXooo ....... ......",
"...... .......oooo  +O+O+O+O+O+OOO+O+OOO+O+O  oooo....... ......",
"......  ......ooo  +O+O+O+O+O+OOO+O+O+OOO+O+O  ooo......  ......",
".....        Xooo +O+O+OOO+O+O+O+O+O+O+OOO+O+O oooo        .....",
"....  .......XXo +O+O+O+O+O+OOO+O+O+O+O+OOO+O+O ooo.......  ....",
".... ........oXX O+O+O+O+O+O+++O+O+OOO+O+O+O+O+ ooo........ ....",
".... ........ooX +O+OOO+O+OOO+O+OOOOOOO+OOO+O+O ooo........ ....",
"..   ........ooo O+O+O+O+O+O+O+OOO+O+OOO+OOO+O+ ooo........   ..",
"   .. .......ooX +O+OOO+O+OOO+OOO+O+O+O+O+O+O+O ooo....... ..   ",
" ....  ......oXX O+OOO+O+OO++O+OOOOOOOOO+OOO+O+ Xoo......  .... ",
"...... ......oXo +O+O+O+OOO+OOO+O+O+O+OOO+O+O+O oXX...... ......",
"....... .....oXo O+O+O+O+O+O+OOO+O+O+O+O+OOO+O+ ooo..... .......",
"........     XXo +OOO+O+OOO+OOO+O+O+O+OOO+OOO+O ooo     ........",
".......... ..oXo O+O+O+OOO+O+O+O+O+O+O+OOO+O+O+ ooo.. ..........",
".........  ..oXo +OOO+O+O+O+OOO+O+O+O+O+O+OOO+O ooX..  .........",
"......... ...oXo OOO+O+OOO+OOO+O++OOOO+OOO+O+O+ oXX... .........",
".......  ....oXo +O+O+O+O+O+O+O+OO++O+O+OOOOO+O XXo....  .......",
"......  .....oXX OOO+O+OOO+OOO+O+O+OOO+O+O+OOO+ Xoo.....  ......",
".....  ......ooX +O+O+OOO+OOO+O+O+O+OOO+OOO+O+O ooo......  .....",
"....  .......ooo OOO+O+O+O+O+O+O+O+O+OOO+O+OOO+ ooo.......  ....",
"...  . ......ooo +O+O+OOO+OOO+OOO+O+O+O+O+O+O+O ooo...... .  ...",
"    ..  .... ooo OOO+O+O+O+O+OOO+O+O+OOO+OOOOO+ ooo ....  ..    ",
".......  ..  ooo +O+O+OOO+O+O+O+OOO+O+O+O+O+O+O ooo  ..  .......",
"........    .oXX OOO+O+O+OOO+OOO+OOO+OOO+OOOOO+ ooo.    ........",
"......... ...oXo +O+O+OOO+O+OOO+OOOOO+O+O+O+O+O oXX... .........",
"......... ...XXo OOO+O+O+OOO+O+OOO+O+OOO+OOO+O+ XXo... .........",
"......... ...Xoo +O+O+OOO+O+OOO+O+OOO+O+O+O+OOO ooo... .........",
".........    ooo OOO+OOO+OOO+O+OOOOO+OOO+OOO+O+ ooo    .........",
".......... . ooo +O+O+O+O+O+OOOOO+O+O+O+O+O+OOO ooo . ..........",
".........  ..ooo OOO+OOO+OOO+O+O+OOO+OOO+OOO+O+ ooo..  .........",
".......  ....ooo +O+O+O+O+O+OOO+O+O+O+O+O+O+OOO ooo....  .......",
"......  . ...Xoo OOO+OOO+OOO+O+O+O+O+OOO+OOO+O+ ooo... .  ......",
".....  ..  ..XXo +O+O+O+O+OOOOO+OOO+O+O+O+O+OOO ooo..  ..  .....",
"..   ..... ..oXX OOO+OOO+O+O+OOOOO+O+OOO+OOO+O+ Xoo.. .....   ..",
"   ......  ..ooX +OOO+O+O+OOO+OOO+O+O+O+O+O+OOO XXo..  ......   ",
"......... .  ooo O+O+OOO+O+O+OOO+O+O+O+O+OOO+O+ oXX  . .........",
"........ ... ooo +OOO+O+O+OOO+O+O+O+OOO+O+O+OOO ooo ... ........",
"........  ...ooo O+O+OOO+O+OOO+O+O+OOO+O+OOO+O+ ooo...  ........",
"......... ...XXo +OOO+OOO+O+O+O+O+O+O+O+OOO+OOO ooo... .........",
"......... ...oXo O+OOO+O+O+OOO+O+O+OOO+O+O+O+O+ ooo... .........",
".........  ..oXX +O+O+OOO+O+OOO+O+OOO+O+OOO+OOO ooo..  .........",
".........    ooX O+OOO+OOO+O+OOO+OOO+O+OOO+O+O+ ooo    .........",
"........  .. ooX +O+OOO+O+O+O+OOOOO+O+O+O+O+OOO oXX ..  ........",
"........ ....oXX O+O+O+OOO+O+O+O+O+O+O+O+O+OOO+ oXo.... ........",
"..       ....oXo +O+OOO+OOO+O+O+O+O+O+OOO+O+O+O XXo....       ..",
"   .... .....XXo O+O+OOO+OOO+O+O+O+O+OOO+O+OOO+ ooo..... ....   ",
".......  ....ooo +O+O+OOO+OOO+O+O+O+OOO+O+OOO+O ooo....  .......",
"........ ... ooo O+O+O+O+O+OOO+O+O+OOO+O+O+O+O+ ooX ... ........",
"........ .  .ooo +O+O+OOO+O+OOO+O+O+O+O+O+O+O+O oXX.  . ........",
"........  ...XXo OOO+O+OOO+O+OOOOOOO+O+O+OOO+O+ XXo...  ........",
"......... ...oXX +O+O+O+OOO+O+O+O+O+O+O+OOO+O+O Xoo... .........",
"......... ...ooX OOO+O+O+OOO+O+O+O+O+O+OOO+OOO+ ooo... .........",
".........  ..ooo +OOO+O+O+OOO+O+O+O+OOO+O+OOO+O ooo..  .........",
"...........  ooo O+OOO+O+O+OOO+O+OOOOO+O+OOO+O+ ooo  ...........",
".............XXX +O+OOO+O+O+O+OOOOO+O+OOOOO+OOO XXX............."
};
