/* XPM */
static char *_017f2e27b05444ac5b7793424b7e9f6ihKcj53GscCXqlgS[] = {
/* columns rows colors chars-per-pixel */
"64 64 4 1 ",
"  c black",
". c #272626",
"X c #0D7A19",
"o c #2DB404",
/* pixels */
"oXX.oo.oX...o.oXoX.o o.....o.o .o o..X.ooooo.XX.... X..Xo.o.XXoo",
"Xo.oX.oX.X.o .XXoooX .oXoooo.oXo.  o...Xo.ooXX.Xo.o .oXoXo....oX",
"..oXooXoX...oX...oX ...o..o  oo..ooXooX...X.o ...o. .X.ooXo.oo..",
"oXo.oX.o.o.o .....X..oXXX.Xo. XoX  . X....o.o ...X. ...o....XoXo",
"Xoooo.o.X.X   ...oXX.o..XXX... oo .oX   ..o.X oX..   ...X.o.X.oX",
"o.Xo.....o o.  ...XXXXoXX....oo X .oo..   o ooo..  .  ..o.... .o",
".XXXoo..   oo.  .oX.o..oX....o.  XX..XX.... ..o.  ...  o....  .o",
"...o     ..oo.. .X..X..o....... ...o.o..... ...oo......o     .oX",
"...XX ......X..   X.o..oo...... ..o.XX..... .. o ......Xo ..  .o",
"..oX.  .....X...  oXX..Xo.....  ..o.o.o....    o.......o. ...  o",
"..oX..  ....oo.  o.XX..oo...    .XXo.X.....  oo X.....o.. ....o.",
"..X....  .....o ..X.XX.X.... .. ..o...o...  ..o. ......o. ....X.",
"..oX.... ...... .X.... o... ...  .oo.o..  ...X.o ......X  ...o .",
"   o.... .....oX  o....oX   ....    ..X. .....  o.....o. .....o ",
" .Xo      ....o  X ....X  ......... .o. .....    o.... o .....o ",
"...o..... .....o.oo....oo..........   X ..... ..XX....X.......X.",
"..X....... ... o.o. ....o .........  o ..... ...o X.. .Xo...o..o",
"...o...... .   .X.. ...X. .......   .o ..... .... o . .o.....Xo.",
"..X.......   ..ooo. ...o.  .....   ...Xo.... .....o   .X......Xo",
"...o...... . ..oo.. ...X         .  .. o.... ....o. . oXo.....X.",
"  XX.....  ..  Xoo. ..  o..........  .oo  .. ...oXX..  X.....  o",
"..o ....  .....oo...   .X........... o.o.   .... .o...Xo.... .X.",
"..Xo ... ......  o.. ...oX.......... oXoX.. ...  o....Xo...  .oX",
"...oo    .......o... ....o.......... ..X... ... .oo....X    ...o",
"..XX.. .......  o... ....X.........  .oXX.. ...  o....o.. .....o",
"...oo. .....  .X...   ..oo..        ..oo..   ... Xo ...X. ....o.",
"..X.X  ..... .. o.. . ..o.   ... .......X. . ...oo. ..o..  ....X",
"....o ...... ..X  . .  . o......  .....o.  . .  X.. ...o..  ..o.",
"...o ......  ..oX   ..  o........ .....o. ..   oo..  ..X...  ..X",
"..o ....... ...o...... oX.o......  ...Xoo ......oo.. .o..... .o.",
"..o  ...... ..........o o.X.......  ....X......X.... ..o...  ...",
".XXX ...... ............ ..o.......  ..X.X....oo.... ...X.. ....",
"..o.  .....   .......... ...........  .XX.....oX.o   ..oXo  ....",
".oo.. ..... .   ........  ...........  o........o  . ..... .....",
"..... ....  ... ......... ............ .o....... ...  .... .....",
".....  ..  ....  ....... .............. .o.....  ....  ..  .....",
"...... .  ......  ...... ..............    ...  ......  . ......",
"  ....   .........       .............. ..    .........   ....  ",
".   .. ............ ....     .........  .... ............ ..   .",
"...   ............. ........    ....  ...... .............   ...",
".....   ........... ...........      ....... ...........   .....",
".......  .......  . ........... ............ .  .......  .......",
".........    .   .  ........... ............  .   .    .........",
".........  .   ....   ........  ..........   ....   .  .........",
"......... ... .......  ....... . ........  ....... ... .........",
"   ..... .... ........ ....... .. ....... ........ .... .....   ",
"...      .... ........ .....   ...  ..... ........ ....      ...",
"..... .......  ....... ...   ......  .... .......  ....... .....",
"..... .......    .....      ........      .....    ....... .....",
"......  ....  ..  ....  ...  ............ ....  ..  ....  ......",
"........  .  ....  .   ..... ............   .  ....  .  ........",
".........   ......   ....... ..............   ......   .........",
"........  ......... ........    ............ .........  ........",
".......  ...........  .....  ..   ........  ...........  .......",
"....... .............  ..   ......  .....  ............. .......",
"......     ...........    .........   ... ...........     ......",
".....  ...  ..........  ........... .  .  ..........  ...  .....",
"....  ..... ...........  .......... ..   ........... .....  ....",
"..   ...... ............ ......... .... ............ ......   ..",
"   ........ ..      ...  ......... ....  ...      .. ........   ",
"...........    ....        ......  .....     ....    ...........",
"............  ............       ......... .......  ............",
".............  ........... ...............   ....  .............",
".............. ...........   ................     .............."
};
