/* XPM */
static char *af6277efb8ea453df6e591dd2fe60047bd6fQY04wrPDn8jS[] = {
/* columns rows colors chars-per-pixel */
"64 64 7 1 ",
"  c black",
". c #272626",
"X c #05888E",
"o c #03959C",
"O c #029EA5",
"+ c #00F3FF",
"@ c #6DE5EA",
/* pixels */
"XX+++o@@ooX@oo+oo+OXXoo+o+XoooX++ooooooX+ooo.++Xoooooooo++Xooooo",
"+X+++oo@oo@@o.+.o+OXo.+ooX+.+oXX+ooo+o X+..+++XX+o ++oo++XXo+ ++",
"..X+..oooX @.++..+O.o.o..X+. o X+.oo+. X++.+.+X..++.+++  XX..+..",
"..X+..o.XO   + .++O...o..++. o. +.....X++.oo.+X.oo ..+ XX.X.. ..",
"..X+..o.XO ..+  +XO ooo.X+.  .o.+X....X+..+..+X  oo  + XX..X. ..",
"..X+....XO .++ .++O .o..X+  .o..++X...X+     +X ... .+X.X..X. ..",
"  X+....OO .++ ..+O .oo.X++..... +X...X++ ...+XXX.. ++X.X...X   ",
"  X+....O..++. ..+O ..o. X+.....++X . XX+ ....++X.  + X X...X   ",
" .X+  ..O..++. ..+.O.... .+X....+.X   .X+  ....+X. .++X.X   XX. ",
"..X+. ..X...+. ...XO     .+XX..++X.....X+. ....+XX ..+X.X. ..X..",
".X++.    X.... ...XOO ....++X..++X......++ ....++X ..+X.X  ..X..",
".X+... . X..   ...X.O .....+X...+........++.....+X ..+X..X...X..",
".X+... .  X  ..... XO .....+X.  +X.......X+  ...++X..+X..X...X..",
" X+... ...X ...... XO .... +X  X+XX...... +.  ... X  +X  X...X. ",
" X+    ....X ....  XO      .X..X++X.....  +.. .. XX......X   X  ",
" X+........X .... ..O. ... .X.XX +XX ..  .++.    X.......X...X. ",
"  +........X .... .XOO ... .X.X..++X    ..X+.  .XXX....  X...XX ",
".  + ......X  ... XX.O ... X..X...+XX ....X+.. .X.X.... .X.   X.",
"...X .....XX. ...XX..OO... X..X...++X ....X+.. X..XX..  .XX ..XX",
"....X     X      X   XO...X ..X....+X    XX+..XX...X.  ..XX ...X",
"....X.... X.....X....XO...X ..X    +X ...X++. X.... X ..X.X ....",
"... X.... XX....X....+X...X    X...+X....X+  XX.... X......X ...",
"... .X...X+XX ..X... +X  XX .. X...+X....X+..X..... .X.....XX...",
"... .X.. X+.X ..X.   +X....... XX..+X.. XX. .X....  .X.     X...",
".   .X.. X+ X   X  ..+X.......  X  +X.. XX.  X       X. ....X  .",
"  ...X.. X+.XX..X....+X......  .X.  X   .X....X+.....X .....X.  ",
".....X.. X++.X..X....X+.....  ......X.. .X....X+.....X ....XX.. ",
"   ++X.. X.++...X....X+XX    ......XXX. ..X...+...  X   ...X.   ",
".. +X... XX.+...X...X++ XX.. ....++X.X. ..X...+    .X......X. ..",
".. +XX..XX.++.  X   X+  .XX. ....+XX.X. ..X.. ++....X......X  ..",
"...+.X..X ++   .X..X++ ...X. ...++X...X  .X.  ++....X......X ...",
".. +....X +....X...X+. ....X  .++.X...X. .X  .+X....X......X  ..",
".. +... X +....X...X++ .....X  + X ....X .. ..+X....X......X  ..",
"...+    XX+...XX...X.+ .....X..+.X ....X .. ..+XX...X......X....",
"...+  .XXX+...X....X.+  ....X..+.X  ...XX     ++X...XX.... X....",
"..++. XX X+   XX...X.+. ....X..+.X.     X......+X....X.... XX...",
"..+..XX. X+   XX   XX+   ..X. .+.X. ....X......++X...X    .+X...",
"..+  X...X+..XXX...XX+ .   X   + XX ....X...... +X..  X... +X...",
"..+ XX...++.XX.....X.+... XX...++.X.... X...... +    XX....+X ..",
"  +.X...X+..X.....X..+...XXX....+.X.... X....  ++... XX....++X  ",
"  +.X... +.X......X+++.. X.X....+.X....XX.... .+X...X+X.....+X. ",
". +.X..  +.XX....X++.   X..X...++X.....XXX... .+....X+.X....+X .",
". +.X.. .+ .X....X+   ..X..X ..+.X.... X+X... .+....X+......+X .",
"..+.X.. .+ .. ..X +. ...X..XX..+XX.... X++X.. .++...X+.....++ ..",
"..+ XX  .+      X++.   .X.. X..+X      ..++.. ..+...X++....+  ..",
"..+  X ..+  ...X.+.... X....X  +X ........+X. ..+...X +....+ ...",
"..+ .X...+. ..X..+.....X....X. +.X........+X  ..+..XX.+....+ ...",
"..+ ..X...+ ..X..+X....X.....X ..XX.......+ X..+...X .+...+. ...",
". ++..X....+..X..+XX...X.....X ...........+.X..+...X  +  .+    .",
"  .+..X.... +.X..++XX  X....X.   ........++XX.+....  .+. ..+..  ",
" ..+..X.... +.X.. + X.X ....X. ..  ..... +.X..+..   ..+.  .+....",
"   .+XX.... +.X   +.X.X ....X. ...       +XX....  ...++..  +    ",
"..  +....   + X ..++X.X ....X. ......... +X....  ...++.....+. ..",
"..   +    .++.X....+..X .. XX  ......... +X     ....+......++ ..",
".  ..+.  ..+..X........   .X. ...........+X.... ....+.......+  .",
".. ..+.. ..+.........    .... ......     +.....     +.......++..",
".. ..+..  ++........  .......        ....+....  ... +.......  ..",
".  ..+... +........  .......  ...........+.... .... +......    .",
"  ...+... ........     ..... ........ ....++.  ....  +      ..  ",
"  ....... ....     ... ..... ........ ......  ...... ++ ......  ",
".  ......  ..  .......  ....  ....... .....  ......  ..  ....  .",
"..  .....     ......... ..... ....           ....   ..  ....  ..",
"... ..... ............. ..... .... .... ...       ...  ..... ...",
"... ....  ............  ....  ...  ........  ........ ...... ..."
};
