/* XPM */
static char *_e13496975a144bc841be430795167fdQPNkVujb6s7oMBp9[] = {
/* columns rows colors chars-per-pixel */
"64 64 29 1 ",
"  c BLACK",
". c gray65",
"X c #B2B2B2",
"o c gray74",
"O c gray",
"+ c gray75",
"@ c gray78",
"# c #CDCDCD",
"$ c #CECECE",
"% c gray81",
"& c gray83",
"* c #D5D5D5",
"= c gray84",
"- c #D7D7D7",
"; c #DDDDDD",
": c gray87",
"> c #DFDFDF",
", c #E2E2E2",
"< c gray89",
"1 c gray90",
"2 c #E6E6E6",
"3 c #E7E7E7",
"4 c #EEEEEE",
"5 c #EFEFEF",
"6 c #F3F3F3",
"7 c #F6F6F6",
"8 c gray97",
"9 c #FEFEFE",
"0 c white",
/* pixels */
"                                                                ",
"                                                                ",
"                                                                ",
"                                                                ",
"                                                                ",
"                                                                ",
"                                                                ",
"                                                                ",
"                                                                ",
"                                                                ",
"                                                                ",
"                                                                ",
"                                                                ",
"                                                                ",
"                                                                ",
"                                                                ",
"                                                                ",
"                                                                ",
"                                                                ",
"                                                                ",
"                                                                ",
"                                                                ",
"                                                                ",
"                                                                ",
"                                                                ",
"                                                                ",
"                                                                ",
"                                                                ",
"                                                                ",
"                                                                ",
"                                                                ",
"                                                                ",
"                               0OO>                             ",
"                             5>00-O>0                           ",
"                            055$0-0$50                          ",
"                           00750$  511                          ",
"                           00 57    &#0                         ",
"                           0   5    ->0  60                     ",
"                       00  0   7    -55  0,0                    ",
"                      005  70 150  7-50  0X0                    ",
"                      0007  5015$0>0-0  70                      ",
"                         000 77 7>0&0  00                       ",
"                           0 86  0,0  50                        ",
"                             757>10&                            ",
"                             0 3 7 > 5                          ",
"                           7 0 7 7  0.0 00                      ",
"                      $-0 50          00O$                      ",
"                      6-,70  0 0 0     @.0                      ",
"                       137             >0                       ",
"                        86                                      ",
"                                                                ",
"                                                                ",
"                                                                ",
"                                                                ",
"                                                                ",
"                                                                ",
"                                                                ",
"                                                                ",
"                                                                ",
"                                                                ",
"                                                                ",
"                                                                ",
"                                                                ",
"                                                                "
};
